<svg width="24" height="24" viewBox="0 0 24 24" fill="none" xmlns="http://www.w3.org/2000/svg">
<path d="M11.302 21.6149C11.5234 21.744 11.6341 21.8086 11.7903 21.8421C11.9116 21.8681 12.0884 21.8681 12.2097 21.8421C12.3659 21.8086 12.4766 21.744 12.698 21.6149C14.646 20.4784 20 16.9084 20 12V7.2176C20 6.41809 20 6.01833 19.8692 5.6747C19.7537 5.37114 19.566 5.10028 19.3223 4.88553C19.0465 4.64244 18.6722 4.50208 17.9236 4.22135L12.5618 2.21067C12.3539 2.13271 12.25 2.09373 12.143 2.07828C12.0482 2.06457 11.9518 2.06457 11.857 2.07828C11.75 2.09373 11.6461 2.13271 11.4382 2.21067L6.0764 4.22135C5.3278 4.50208 4.9535 4.64244 4.67766 4.88553C4.43398 5.10028 4.24627 5.37114 4.13076 5.6747C4 6.01833 4 6.41809 4 7.2176V12C4 16.9084 9.35396 20.4784 11.302 21.6149Z" stroke="black" stroke-width="2" stroke-linecap="round" stroke-linejoin="round"></path>
<path d="M9.21296 14.5C9.52517 15.0945 10.1486 15.5 10.8667 15.5H13C14.1046 15.5 15 14.6046 15 13.5C15 12.3954 14.1046 11.5 13 11.5H11C9.89543 11.5 9 10.6046 9 9.5C9 8.39543 9.89543 7.5 11 7.5H13.1333C13.8514 7.5 14.4748 7.90549 14.787 8.5" stroke="black" stroke-width="2" stroke-linecap="round" stroke-linejoin="round"></path>
<path d="M12 6V7.5" stroke="black" stroke-width="2" stroke-linecap="round" stroke-linejoin="round"></path>
<path d="M12 15.5V17" stroke="black" stroke-width="2" stroke-linecap="round" stroke-linejoin="round"></path>
</svg>