<svg width="24" height="24" viewBox="0 0 24 24" fill="none" xmlns="http://www.w3.org/2000/svg">
<path d="M22 21V19C22 17.1361 20.7252 15.57 19 15.126" stroke="black" stroke-width="2" stroke-linecap="round" stroke-linejoin="round"></path>
<path d="M15.5 3.29053C16.9659 3.88391 18 5.32108 18 6.99977C18 8.67846 16.9659 10.1156 15.5 10.709" stroke="black" stroke-width="2" stroke-linecap="round" stroke-linejoin="round"></path>
<path d="M17 22V21.4C17 19.1598 17 18.0397 16.564 17.184C16.1805 16.4314 15.5686 15.8195 14.816 15.436C13.9603 15 12.8402 15 10.6 15H8.4C6.15979 15 5.03968 15 4.18404 15.436C3.43139 15.8195 2.81947 16.4314 2.43597 17.184C2 18.0397 2 19.1598 2 21.4V22" stroke="black" stroke-width="2" stroke-linecap="round" stroke-linejoin="round"></path>
<path d="M9.5 11C11.7091 11 13.5 9.20914 13.5 7C13.5 4.79086 11.7091 3 9.5 3C7.29086 3 5.5 4.79086 5.5 7C5.5 9.20914 7.29086 11 9.5 11Z" stroke="black" stroke-width="2" stroke-linecap="round" stroke-linejoin="round"></path>
</svg>