<svg width="24" height="24" viewBox="0 0 24 24" fill="none" xmlns="http://www.w3.org/2000/svg">
<rect x="4" y="2" width="16" height="20" rx="3" stroke="black" stroke-width="2" stroke-linecap="round" stroke-linejoin="round"></rect>
<path d="M12 6H12.01M12.5 6C12.5 6.27614 12.2761 6.5 12 6.5C11.7239 6.5 11.5 6.27614 11.5 6C11.5 5.72386 11.7239 5.5 12 5.5C12.2761 5.5 12.5 5.72386 12.5 6Z" stroke="black" stroke-width="2" stroke-linecap="round" stroke-linejoin="round"></path>
<path d="M12 18C14.2091 18 16 16.2091 16 14C16 11.7909 14.2091 10 12 10C9.79086 10 8 11.7909 8 14C8 16.2091 9.79086 18 12 18Z" stroke="black" stroke-width="2" stroke-linecap="round" stroke-linejoin="round"></path>
</svg>