<svg width="24" height="24" viewBox="0 0 24 24" fill="none" xmlns="http://www.w3.org/2000/svg">
<rect x="3" y="2" width="18" height="16" rx="3" stroke="black" stroke-width="2" stroke-linecap="round" stroke-linejoin="round"></rect>
<path d="M6 18V20.4C6 20.9601 6 21.2401 6.10899 21.454C6.20487 21.6422 6.35785 21.7951 6.54601 21.891C6.75992 22 7.03995 22 7.6 22H16.4C16.9601 22 17.2401 22 17.454 21.891C17.6422 21.7951 17.7951 21.6422 17.891 21.454C18 21.2401 18 20.9601 18 20.4V18" stroke="black" stroke-width="2" stroke-linecap="round" stroke-linejoin="round"></path>
<path d="M12 15C14.7614 15 17 12.7614 17 10C17 7.23858 14.7614 5 12 5C9.23858 5 7 7.23858 7 10C7 12.7614 9.23858 15 12 15Z" stroke="black" stroke-width="2" stroke-linecap="round" stroke-linejoin="round"></path>
<path d="M12 10H12.01M12.5 10C12.5 10.2761 12.2761 10.5 12 10.5C11.7239 10.5 11.5 10.2761 11.5 10C11.5 9.72386 11.7239 9.5 12 9.5C12.2761 9.5 12.5 9.72386 12.5 10Z" stroke="black" stroke-width="2" stroke-linecap="round" stroke-linejoin="round"></path>
</svg>