<svg width="24" height="24" viewBox="0 0 24 24" fill="none" xmlns="http://www.w3.org/2000/svg">
<rect x="10" y="16" width="4" height="6" rx="2" stroke="black" stroke-width="2" stroke-linecap="round" stroke-linejoin="round"></rect>
<path d="M17.1189 18C19.4623 16.4151 21 13.7779 21 10.785C21 5.9333 16.9704 2 12 2C7.02958 2 3 5.9333 3 10.785C3 13.7779 4.53771 16.4151 6.88113 18" stroke="black" stroke-width="2" stroke-linecap="round" stroke-linejoin="round"></path>
<path d="M8.35967 14C7.51875 13.15 7 12.0086 7 10.7505C7 8.12711 9.23881 6 12 6C14.7612 6 17 8.12711 17 10.7505C17 12.0095 16.4813 13.15 15.6403 14" stroke="black" stroke-width="2" stroke-linecap="round" stroke-linejoin="round"></path>
<path d="M12 12C12.5523 12 13 11.5523 13 11C13 10.4477 12.5523 10 12 10C11.4477 10 11 10.4477 11 11C11 11.5523 11.4477 12 12 12Z" stroke="black" stroke-width="2" stroke-linecap="round" stroke-linejoin="round"></path>
</svg>