<svg width="24" height="24" viewBox="0 0 24 24" fill="none" xmlns="http://www.w3.org/2000/svg">
<path d="M5.5 20H8" stroke="black" stroke-width="2" stroke-linecap="round" stroke-linejoin="round"></path>
<path d="M8 6H5.2C4.0799 6 3.51984 6 3.09202 6.21799C2.71569 6.40973 2.40973 6.71569 2.21799 7.09202C2 7.51984 2 8.07989 2 9.2V12.8C2 13.9201 2 14.4802 2.21799 14.908C2.40973 15.2843 2.71569 15.5903 3.09202 15.782C3.51984 16 4.07989 16 5.2 16H8" stroke="black" stroke-width="2" stroke-linecap="round" stroke-linejoin="round"></path>
<path d="M17 9H17.01" stroke="black" stroke-width="2" stroke-linecap="round" stroke-linejoin="round"></path>
<rect x="12" y="4" width="10" height="16" rx="2" stroke="black" stroke-width="2" stroke-linecap="round" stroke-linejoin="round"></rect>
<path d="M17 16C17.5523 16 18 15.5523 18 15C18 14.4477 17.5523 14 17 14C16.4477 14 16 14.4477 16 15C16 15.5523 16.4477 16 17 16Z" stroke="black" stroke-width="2" stroke-linecap="round" stroke-linejoin="round"></path>
</svg>