<svg width="24" height="24" viewBox="0 0 24 24" fill="none" xmlns="http://www.w3.org/2000/svg">
<path d="M11 16.437C11 17.5671 11 18.1321 10.7717 18.4091C10.5734 18.6498 10.2742 18.7841 9.9626 18.7725C9.60391 18.759 9.18161 18.3837 8.33702 17.6329L3.34534 13.1959C2.88005 12.7823 2.6474 12.5755 2.56167 12.3313C2.48638 12.1168 2.48638 11.8832 2.56167 11.6687C2.6474 11.4245 2.88005 11.2177 3.34534 10.8041L8.33702 6.36709C9.18161 5.61634 9.60391 5.24097 9.9626 5.22754C10.2742 5.21588 10.5734 5.35025 10.7717 5.5909C11 5.86791 11 6.43292 11 7.56295V16.437Z" stroke="black" stroke-width="2" stroke-linecap="round" stroke-linejoin="round"></path>
<path d="M22 16.437C22 17.5671 22 18.1321 21.7717 18.4091C21.5734 18.6498 21.2742 18.7841 20.9626 18.7725C20.6039 18.759 20.1816 18.3837 19.337 17.6329L14.3453 13.1959C13.88 12.7823 13.6474 12.5755 13.5617 12.3313C13.4864 12.1168 13.4864 11.8832 13.5617 11.6687C13.6474 11.4245 13.88 11.2177 14.3453 10.8041L19.337 6.36709C20.1816 5.61634 20.6039 5.24097 20.9626 5.22754C21.2742 5.21588 21.5734 5.35025 21.7717 5.5909C22 5.86791 22 6.43292 22 7.56295V16.437Z" stroke="black" stroke-width="2" stroke-linecap="round" stroke-linejoin="round"></path>
</svg>