<svg width="24" height="24" viewBox="0 0 24 24" fill="none" xmlns="http://www.w3.org/2000/svg">
<path d="M11.3854 15.7375C11.5965 15.4842 11.702 15.3576 11.8284 15.3114C11.9392 15.2709 12.0608 15.2709 12.1716 15.3114C12.298 15.3576 12.4035 15.4842 12.6146 15.7375L15.9065 19.6879C16.2554 20.1064 16.4298 20.3157 16.4324 20.4925C16.4347 20.6461 16.3663 20.7923 16.2467 20.8889C16.1093 21 15.8368 21 15.292 21H8.70803C8.16318 21 7.89075 21 7.75326 20.8889C7.63373 20.7923 7.56526 20.6461 7.56758 20.4925C7.57024 20.3157 7.74465 20.1064 8.09346 19.6879L11.3854 15.7375Z" stroke="black" stroke-width="2" stroke-linecap="round" stroke-linejoin="round"></path>
<path d="M5 18C3.34315 18 2 16.6569 2 15V7.8C2 6.11984 2 5.27976 2.32698 4.63803C2.6146 4.07354 3.07354 3.6146 3.63803 3.32698C4.27976 3 5.11984 3 6.8 3H17.2C18.8802 3 19.7202 3 20.362 3.32698C20.9265 3.6146 21.3854 4.07354 21.673 4.63803C22 5.27976 22 6.11984 22 7.8V15C22 16.6569 20.6569 18 19 18" stroke="black" stroke-width="2" stroke-linecap="round" stroke-linejoin="round"></path>
</svg>