<svg width="24" height="24" viewBox="0 0 24 24" fill="none" xmlns="http://www.w3.org/2000/svg">
<path d="M17 10V8C17 5.23858 14.7614 3 12 3C9.23858 3 7 5.23858 7 8V10" stroke="black" stroke-width="2" stroke-linecap="round" stroke-linejoin="round"></path>
<path d="M12 14.5L12 16.5" stroke="black" stroke-width="2" stroke-linecap="round" stroke-linejoin="round"></path>
<path d="M4 14.8C4 13.1198 4 12.2798 4.32698 11.638C4.6146 11.0735 5.07354 10.6146 5.63803 10.327C6.27976 10 7.11984 10 8.8 10H15.2C16.8802 10 17.7202 10 18.362 10.327C18.9265 10.6146 19.3854 11.0735 19.673 11.638C20 12.2798 20 13.1198 20 14.8V16.2C20 17.8802 20 18.7202 19.673 19.362C19.3854 19.9265 18.9265 20.3854 18.362 20.673C17.7202 21 16.8802 21 15.2 21H8.8C7.11984 21 6.27976 21 5.63803 20.673C5.07354 20.3854 4.6146 19.9265 4.32698 19.362C4 18.7202 4 17.8802 4 16.2V14.8Z" stroke="black" stroke-width="2" stroke-linecap="round" stroke-linejoin="round"></path>
</svg>