<svg width="24" height="24" viewBox="0 0 24 24" fill="none" xmlns="http://www.w3.org/2000/svg">
<path d="M16.2426 16.2426C18.5858 13.8995 18.5858 10.1005 16.2426 7.75736C13.8995 5.41421 10.1005 5.41421 7.75736 7.75736C5.41421 10.1005 5.41421 13.8995 7.75736 16.2426" stroke="black" stroke-width="2" stroke-linecap="round" stroke-linejoin="round"></path>
<path d="M13.4142 13.4142C14.1953 12.6332 14.1953 11.3668 13.4142 10.5858C12.6332 9.80474 11.3668 9.80474 10.5858 10.5858C9.80474 11.3668 9.80474 12.6332 10.5858 13.4142" stroke="black" stroke-width="2" stroke-linecap="round" stroke-linejoin="round"></path>
<path d="M19.0711 19.0711C22.9763 15.1658 22.9763 8.83418 19.0711 4.92893C15.1658 1.02369 8.83418 1.02369 4.92893 4.92893C1.02369 8.83418 1.02369 15.1658 4.92893 19.0711" stroke="black" stroke-width="2" stroke-linecap="round" stroke-linejoin="round"></path>
</svg>