<svg width="24" height="24" viewBox="0 0 24 24" fill="none" xmlns="http://www.w3.org/2000/svg">
<path d="M18.2451 8C19.036 9.13383 19.4998 10.5128 19.4998 12C19.4998 13.4872 19.036 14.8662 18.2451 16" stroke="black" stroke-width="2" stroke-linecap="round" stroke-linejoin="round"></path>
<path d="M4.5 9.6C4.5 9.03995 4.5 8.75992 4.60899 8.54601C4.70487 8.35785 4.85785 8.20487 5.04601 8.10899C5.25992 8 5.53995 8 6.1 8H7.83726C8.08185 8 8.20414 8 8.31923 7.97237C8.42127 7.94787 8.51881 7.90747 8.60828 7.85264C8.7092 7.7908 8.79568 7.70432 8.96863 7.53137L12.1343 4.36568C12.5627 3.93731 12.7769 3.72312 12.9608 3.70865C13.1203 3.69609 13.2763 3.76068 13.3802 3.88238C13.5 4.02265 13.5 4.32556 13.5 4.93137V19.0686C13.5 19.6744 13.5 19.9774 13.3802 20.1176C13.2763 20.2393 13.1203 20.3039 12.9608 20.2914C12.7769 20.2769 12.5627 20.0627 12.1343 19.6343L8.96863 16.4686C8.79568 16.2957 8.7092 16.2092 8.60828 16.1474C8.51881 16.0925 8.42127 16.0521 8.31923 16.0276C8.20414 16 8.08185 16 7.83726 16H6.1C5.53995 16 5.25992 16 5.04601 15.891C4.85785 15.7951 4.70487 15.6422 4.60899 15.454C4.5 15.2401 4.5 14.9601 4.5 14.4V9.6Z" stroke="black" stroke-width="2" stroke-linecap="round" stroke-linejoin="round"></path>
</svg>