<svg width="24" height="24" viewBox="0 0 24 24" fill="none" xmlns="http://www.w3.org/2000/svg">
<path d="M11.8861 17.8987C11.9285 17.7501 11.9497 17.6759 11.9815 17.6066C12.0098 17.5451 12.0442 17.4866 12.0842 17.4321C12.1293 17.3707 12.1839 17.3161 12.2932 17.2068L18.75 10.75C19.4404 10.0596 20.5597 10.0596 21.25 10.75C21.9404 11.4403 21.9404 12.5597 21.25 13.25L14.7932 19.7068C14.6839 19.8161 14.6293 19.8707 14.5679 19.9158C14.5134 19.9558 14.4549 19.9902 14.3934 20.0185C14.3241 20.0502 14.2499 20.0715 14.1014 20.1139L11 21L11.8861 17.8987Z" stroke="black" stroke-width="2" stroke-linecap="round" stroke-linejoin="round"></path>
<path d="M9 15.5H7.5C6.10444 15.5 5.40665 15.5 4.83886 15.6722C3.56045 16.06 2.56004 17.0605 2.17224 18.3389C2 18.9067 2 19.6044 2 21" stroke="black" stroke-width="2" stroke-linecap="round" stroke-linejoin="round"></path>
<path d="M10 12C12.4853 12 14.5 9.98528 14.5 7.5C14.5 5.01472 12.4853 3 10 3C7.51472 3 5.5 5.01472 5.5 7.5C5.5 9.98528 7.51472 12 10 12Z" stroke="black" stroke-width="2" stroke-linecap="round" stroke-linejoin="round"></path>
</svg>