<svg width="24" height="24" viewBox="0 0 24 24" fill="none" xmlns="http://www.w3.org/2000/svg">
<path d="M15.0001 9.4V5C15.0001 3.34315 13.6569 2 12.0001 2C10.8224 2 9.8033 2.67852 9.31226 3.66593" stroke="black" stroke-width="2" stroke-linecap="round" stroke-linejoin="round"></path>
<path d="M9 12C9 13.6569 10.3431 15 12 15C12.8291 15 13.5796 14.6637 14.1226 14.12L9 9V12Z" stroke="black" stroke-width="2" stroke-linecap="round" stroke-linejoin="round"></path>
<path d="M12 19V22" stroke="black" stroke-width="2" stroke-linecap="round" stroke-linejoin="round"></path>
<path d="M8 22H16" stroke="black" stroke-width="2" stroke-linecap="round" stroke-linejoin="round"></path>
<path d="M2 2L22 22" stroke="black" stroke-width="2" stroke-linecap="round" stroke-linejoin="round"></path>
<path d="M5 10V12C5 15.866 8.13401 19 12 19C15.866 19 19 15.866 19 12V10" stroke="black" stroke-width="2" stroke-linecap="round" stroke-linejoin="round"></path>
</svg>