<svg width="24" height="24" viewBox="0 0 24 24" fill="none" xmlns="http://www.w3.org/2000/svg">
<path d="M12 22C17.5228 22 22 17.5228 22 12C22 6.47715 17.5228 2 12 2C6.47715 2 2 6.47715 2 12C2 17.5228 6.47715 22 12 22Z" stroke="black" stroke-width="2" stroke-linecap="round" stroke-linejoin="round"></path>
<path d="M16 16C16 16 14.5 14 12 14C9.5 14 8 16 8 16" stroke="black" stroke-width="2" stroke-linecap="round" stroke-linejoin="round"></path>
<path d="M17 9.24023C16.605 9.72523 16.065 10.0002 15.5 10.0002C14.935 10.0002 14.41 9.72523 14 9.24023" stroke="black" stroke-width="2" stroke-linecap="round" stroke-linejoin="round"></path>
<path d="M10 9.24023C9.605 9.72523 9.065 10.0002 8.5 10.0002C7.935 10.0002 7.41 9.72523 7 9.24023" stroke="black" stroke-width="2" stroke-linecap="round" stroke-linejoin="round"></path>
</svg>