<svg width="24" height="24" viewBox="0 0 24 24" fill="none" xmlns="http://www.w3.org/2000/svg">
<path d="M12.405 19.475C12.4403 19.2984 12.458 19.2102 12.4903 19.1278C12.5189 19.0548 12.5561 18.9853 12.601 18.921C12.6516 18.8484 12.7152 18.7848 12.8425 18.6575L19.5 12C20.0523 11.4477 20.9477 11.4477 21.5 12C22.0524 12.5523 22.0524 13.4477 21.5 14.0001L14.8426 20.6575C14.7152 20.7848 14.6516 20.8484 14.579 20.899C14.5147 20.9439 14.4452 20.9811 14.3721 21.0097C14.2898 21.042 14.2015 21.0597 14.025 21.095L11.9999 21.5L12.405 19.475Z" stroke="black" stroke-width="2" stroke-linecap="round" stroke-linejoin="round"></path>
<path d="M18 6.99977C18 5.32108 16.9659 3.88391 15.5 3.29053" stroke="black" stroke-width="2" stroke-linecap="round" stroke-linejoin="round"></path>
<path d="M11 15H8C6.13623 15 5.20435 15 4.46927 15.3045C3.48915 15.7105 2.71046 16.4892 2.30448 17.4693C2 18.2044 2 19.1362 2 21" stroke="black" stroke-width="2" stroke-linecap="round" stroke-linejoin="round"></path>
<path d="M9.5 11C11.7091 11 13.5 9.20914 13.5 7C13.5 4.79086 11.7091 3 9.5 3C7.29086 3 5.5 4.79086 5.5 7C5.5 9.20914 7.29086 11 9.5 11Z" stroke="black" stroke-width="2" stroke-linecap="round" stroke-linejoin="round"></path>
</svg>