<svg width="24" height="24" viewBox="0 0 24 24" fill="none" xmlns="http://www.w3.org/2000/svg">
<path d="M4 6.8C4 5.11984 4 4.27976 4.32698 3.63803C4.6146 3.07354 5.07354 2.6146 5.63803 2.32698C6.27976 2 7.11984 2 8.8 2H14L20 8V17.2C20 18.8802 20 19.7202 19.673 20.362C19.3854 20.9265 18.9265 21.3854 18.362 21.673C17.7202 22 16.8802 22 15.2 22H8.8C7.11984 22 6.27976 22 5.63803 21.673C5.07354 21.3854 4.6146 20.9265 4.32698 20.362C4 19.7202 4 18.8802 4 17.2V6.8Z" stroke="black" stroke-width="2" stroke-linecap="round" stroke-linejoin="round"></path>
<path d="M14 2V8H20" stroke="black" stroke-width="2" stroke-linecap="round" stroke-linejoin="round"></path>
<rect x="8.5" y="14" width="7" height="4" rx="1" stroke="black" stroke-width="2" stroke-linecap="round" stroke-linejoin="round"></rect>
<path d="M13.75 14V12.25C13.75 11.2835 12.9665 10.5 12 10.5C11.0335 10.5 10.25 11.2835 10.25 12.25V14" stroke="black" stroke-width="2" stroke-linecap="round" stroke-linejoin="round"></path>
</svg>