<svg width="24" height="24" viewBox="0 0 24 24" fill="none" xmlns="http://www.w3.org/2000/svg">
<path d="M19.08 12.05C17.9624 11.1191 16.6803 10.4263 15.312 10" stroke="black" stroke-width="2" stroke-linecap="round" stroke-linejoin="round"></path>
<path d="M22.5799 8.50004C19.6575 5.924 15.8956 4.50269 11.9999 4.50269C11.3949 4.50269 10.7931 4.53697 10.1972 4.60453" stroke="black" stroke-width="2" stroke-linecap="round" stroke-linejoin="round"></path>
<path d="M8.52979 15.61C9.54499 14.8887 10.7595 14.5012 12.0048 14.5012C13.2501 14.5012 14.4646 14.8887 15.4798 15.61" stroke="black" stroke-width="2" stroke-linecap="round" stroke-linejoin="round"></path>
<path d="M12 19.5H12.01" stroke="black" stroke-width="2" stroke-linecap="round" stroke-linejoin="round"></path>
<path d="M1.19336 8.70076C2.52697 7.4787 4.06839 6.47975 5.75851 5.76306" stroke="black" stroke-width="2" stroke-linecap="round" stroke-linejoin="round"></path>
<path d="M4.73193 12.2429C6.12934 11.0119 7.84172 10.1301 9.73264 9.73389" stroke="black" stroke-width="2" stroke-linecap="round" stroke-linejoin="round"></path>
<path d="M15.6983 15.7751C14.6792 14.9763 13.3952 14.5 11.9999 14.5C10.5835 14.5 9.28172 14.9908 8.25537 15.8116" stroke="black" stroke-width="2" stroke-linecap="round" stroke-linejoin="round"></path>
<path d="M3 3L21 21" stroke="black" stroke-width="2" stroke-linecap="round" stroke-linejoin="round"></path>
</svg>