<svg width="24" height="24" viewBox="0 0 24 24" fill="none" xmlns="http://www.w3.org/2000/svg">
<g clip-path="url(#clip0_2626_3304)">
<path d="M16.2427 16.2426C18.5858 13.8995 18.5858 10.1005 16.2427 7.75732" stroke="black" stroke-width="2" stroke-linecap="round" stroke-linejoin="round"></path>
<path d="M7.75736 16.2426C5.41421 13.8995 5.41421 10.1005 7.75736 7.75732" stroke="black" stroke-width="2" stroke-linecap="round" stroke-linejoin="round"></path>
<path d="M4.92896 19.0711C1.02371 15.1658 1.02371 8.8342 4.92896 4.92896" stroke="black" stroke-width="2" stroke-linecap="round" stroke-linejoin="round"></path>
<path d="M19.071 19.0711C22.9763 15.1658 22.9763 8.8342 19.071 4.92896" stroke="black" stroke-width="2" stroke-linecap="round" stroke-linejoin="round"></path>
<path d="M12 14C13.1046 14 14 13.1046 14 12C14 10.8954 13.1046 10 12 10C10.8954 10 10 10.8954 10 12C10 13.1046 10.8954 14 12 14Z" stroke="black" stroke-width="2" stroke-linecap="round" stroke-linejoin="round"></path>
</g>
<defs>
<clipPath id="clip0_2626_3304">
<rect width="24" height="24" fill="white"></rect>
</clipPath>
</defs>
</svg>