<svg width="24" height="24" viewBox="0 0 24 24" fill="none" xmlns="http://www.w3.org/2000/svg">
<path d="M13.2694 21.9999C10.675 20.382 8.94705 17.5024 8.94705 14.2187C8.94705 12.5315 10.3145 11.164 12.0007 11.164C13.6869 11.164 15.0543 12.5315 15.0543 14.2187C15.0543 15.9059 16.4218 17.2733 18.108 17.2733C19.7942 17.2733 21.1616 15.9059 21.1616 14.2187C21.1616 9.1571 17.0602 5.05469 12.0017 5.05469C6.94319 5.05469 2.8418 9.1571 2.8418 14.2187C2.8418 15.3469 2.96806 16.4455 3.20021 17.5045" stroke="black" stroke-width="2" stroke-linecap="round" stroke-linejoin="round"></path>
<path d="M8.09996 21.221C6.71009 19.2375 5.89246 16.8243 5.89246 14.2187C5.89246 10.8443 8.62638 8.10938 11.9987 8.10938C15.3711 8.10938 18.105 10.8443 18.105 14.2187" stroke="black" stroke-width="2" stroke-linecap="round" stroke-linejoin="round"></path>
<path d="M18.436 20.3118C18.326 20.3179 18.2181 20.3281 18.1071 20.3281C14.7347 20.3281 12.0008 17.5931 12.0008 14.2188" stroke="black" stroke-width="2" stroke-linecap="round" stroke-linejoin="round"></path>
<path d="M20.5253 5.86313C18.4431 3.4978 15.3986 2 11.9998 2C8.60093 2 5.55645 3.4978 3.47418 5.86313" stroke="black" stroke-width="2" stroke-linecap="round" stroke-linejoin="round"></path>
</svg>