<svg width="24" height="24" viewBox="0 0 24 24" fill="none" xmlns="http://www.w3.org/2000/svg">
<path d="M5 19H14C15.3527 19 16.4962 18.1048 16.8705 16.8745L5 5C3.34315 5 2 6.34315 2 8V16C2 17.6569 3.34315 19 5 19Z" stroke="black" stroke-width="2" stroke-linecap="round" stroke-linejoin="round"></path>
<path d="M22 8.93137C22 8.32555 22 8.02265 21.8802 7.88238C21.7763 7.76068 21.6203 7.69609 21.4608 7.70865C21.2769 7.72312 21.0627 7.93731 20.6343 8.36569L17 12L20.6343 15.6343C21.0627 16.0627 21.2769 16.2769 21.4608 16.2914C21.6203 16.3039 21.7763 16.2393 21.8802 16.1176C22 15.9774 22 15.6744 22 15.0686V8.93137Z" stroke="black" stroke-width="2" stroke-linecap="round" stroke-linejoin="round"></path>
<path d="M2 2L22 22" stroke="black" stroke-width="2" stroke-linecap="round" stroke-linejoin="round"></path>
<path d="M9.5 5H12.2C13.8802 5 14.7202 5 15.362 5.32698C15.9265 5.6146 16.3854 6.07354 16.673 6.63803C17 7.27976 17 8.11984 17 9.8V12" stroke="black" stroke-width="2" stroke-linecap="round" stroke-linejoin="round"></path>
</svg>