<svg width="24" height="24" viewBox="0 0 24 24" fill="none" xmlns="http://www.w3.org/2000/svg">
<path d="M8.80865 3.19674L11.4382 2.21067C11.6461 2.13271 11.75 2.09373 11.857 2.07828C11.9518 2.06457 12.0481 2.06457 12.143 2.07828C12.2499 2.09373 12.3539 2.13271 12.5618 2.21067L17.9236 4.22135C18.6722 4.50208 19.0465 4.64244 19.3223 4.88553C19.566 5.10028 19.7537 5.37114 19.8692 5.6747C20 6.01833 20 6.41809 20 7.2176V12C20 12.7203 19.8847 13.4118 19.6818 14.071" stroke="black" stroke-width="2" stroke-linecap="round" stroke-linejoin="round"></path>
<path d="M4.72688 4.72754C4.28966 4.8915 4 5.30948 4 5.77643V12.0001C4 16.9086 9.35396 20.4785 11.302 21.615C11.5234 21.7442 11.6341 21.8088 11.7904 21.8423C11.9116 21.8683 12.0885 21.8682 12.2098 21.8422C12.366 21.8087 12.4772 21.7438 12.6996 21.614C13.7879 20.979 15.9362 19.5862 17.6219 17.6258" stroke="black" stroke-width="2" stroke-linecap="round" stroke-linejoin="round"></path>
<path d="M3 3L21 21" stroke="black" stroke-width="2" stroke-linecap="round" stroke-linejoin="round"></path>
</svg>