<svg width="24" height="24" viewBox="0 0 24 24" fill="none" xmlns="http://www.w3.org/2000/svg">
<path d="M15.0334 4H8.96656C7.88969 4 7.35125 4 6.87589 4.16396C6.45551 4.30896 6.07263 4.5456 5.75495 4.85675C5.3957 5.2086 5.15491 5.69019 4.67331 6.65337L4.67331 6.65337L2.50675 10.9865L2.50675 10.9865C2.31776 11.3645 2.22326 11.5535 2.15662 11.7515C2.09744 11.9275 2.05471 12.1085 2.02897 12.2923C2 12.4992 2 12.7105 2 13.1331V15.2C2 16.8802 2 17.7202 2.32698 18.362C2.6146 18.9265 3.07354 19.3854 3.63803 19.673C4.27976 20 5.11984 20 6.8 20H17.2C18.8802 20 19.7202 20 20.362 19.673C20.9265 19.3854 21.3854 18.9265 21.673 18.362C22 17.7202 22 16.8802 22 15.2V13.1331C22 12.7105 22 12.4992 21.971 12.2923C21.9453 12.1085 21.9026 11.9275 21.8434 11.7515C21.7767 11.5535 21.6822 11.3645 21.4932 10.9865L19.3267 6.65337L19.3267 6.65336C18.8451 5.69019 18.6043 5.2086 18.2451 4.85675C17.9274 4.5456 17.5445 4.30896 17.1241 4.16396C16.6487 4 16.1103 4 15.0334 4Z" stroke="black" stroke-width="2" stroke-linecap="round" stroke-linejoin="round"></path>
<path d="M2.5 12H21.5" stroke="black" stroke-width="2" stroke-linecap="round" stroke-linejoin="round"></path>
<path d="M6 16H10" stroke="black" stroke-width="2" stroke-linecap="round" stroke-linejoin="round"></path>
</svg>