<svg width="24" height="24" viewBox="0 0 24 24" fill="none" xmlns="http://www.w3.org/2000/svg">
<path d="M22 11V8.2C22 7.0799 22 6.51984 21.782 6.09202C21.5903 5.71569 21.2843 5.40973 20.908 5.21799C20.4802 5 19.9201 5 18.8 5H5.2C4.07989 5 3.51984 5 3.09202 5.21799C2.71569 5.40973 2.40973 5.71569 2.21799 6.09202C2 6.51984 2 7.07989 2 8.2V11.8C2 12.9201 2 13.4802 2.21799 13.908C2.40973 14.2843 2.71569 14.5903 3.09202 14.782C3.51984 15 4.07989 15 5.2 15H11" stroke="black" stroke-width="2" stroke-linecap="round" stroke-linejoin="round"></path>
<path d="M12 10H12.005M12.25 10C12.25 10.1381 12.1381 10.25 12 10.25C11.8619 10.25 11.75 10.1381 11.75 10C11.75 9.86193 11.8619 9.75 12 9.75C12.1381 9.75 12.25 9.86193 12.25 10Z" stroke="black" stroke-width="2" stroke-linecap="round" stroke-linejoin="round"></path>
<path d="M17 10H17.005M17.25 10C17.25 10.1381 17.1381 10.25 17 10.25C16.8619 10.25 16.75 10.1381 16.75 10C16.75 9.86193 16.8619 9.75 17 9.75C17.1381 9.75 17.25 9.86193 17.25 10Z" stroke="black" stroke-width="2" stroke-linecap="round" stroke-linejoin="round"></path>
<path d="M7 10H7.005M7.25 10C7.25 10.1381 7.13807 10.25 7 10.25C6.86193 10.25 6.75 10.1381 6.75 10C6.75 9.86193 6.86193 9.75 7 9.75C7.13807 9.75 7.25 9.86193 7.25 10Z" stroke="black" stroke-width="2" stroke-linecap="round" stroke-linejoin="round"></path>
<rect x="14" y="17" width="7" height="4" rx="1" stroke="black" stroke-width="2" stroke-linecap="round" stroke-linejoin="round"></rect>
<path d="M19.25 17V15.25C19.25 14.2835 18.4665 13.5 17.5 13.5C16.5335 13.5 15.75 14.2835 15.75 15.25V17" stroke="black" stroke-width="2" stroke-linecap="round" stroke-linejoin="round"></path>
</svg>