<svg width="24" height="24" viewBox="0 0 24 24" fill="none" xmlns="http://www.w3.org/2000/svg">
<path d="M20.5 21C20.9217 21 21.1325 21 21.3199 20.9204C21.7008 20.7586 21.9805 20.2558 21.9171 19.8469C21.8859 19.6456 21.7957 19.5003 21.6152 19.2097C20.7041 17.742 19.4559 16.5683 18 15.8369" stroke="black" stroke-width="2" stroke-linecap="round" stroke-linejoin="round"></path>
<path d="M16 11.5323C17.4817 10.7959 18.5 9.26687 18.5 7.50001C18.5 5.73315 17.4817 4.20412 16 3.46777" stroke="black" stroke-width="2" stroke-linecap="round" stroke-linejoin="round"></path>
<path d="M9.5 12C11.9853 12 14 9.98528 14 7.5C14 5.01472 11.9853 3 9.5 3C7.01472 3 5 5.01472 5 7.5C5 9.98528 7.01472 12 9.5 12Z" stroke="black" stroke-width="2" stroke-linecap="round" stroke-linejoin="round"></path>
<path d="M9.5 15C6.66937 15 4.15354 16.5446 2.55923 18.9383C2.20996 19.4628 2.03533 19.725 2.05543 20.0599C2.07109 20.3207 2.24205 20.64 2.45044 20.7976C2.71808 21 3.08617 21 3.82236 21H15.1776C15.9138 21 16.2819 21 16.5496 20.7976C16.758 20.64 16.9289 20.3207 16.9446 20.0599C16.9647 19.725 16.79 19.4628 16.4408 18.9383C14.8465 16.5446 12.3306 15 9.5 15Z" stroke="black" stroke-width="2" stroke-linecap="round" stroke-linejoin="round"></path>
</svg>